<svg version="1.1" xmlns="http://www.w3.org/2000/svg" xmlns:xlink="http://www.w3.org/1999/xlink" width="69.50581" height="69.49502" viewBox="0,0,69.50581,69.49502"><g transform="translate(-366.55752,-98.30904)"><g fill="#58595b" stroke="none" stroke-miterlimit="10"><path d="M407.43326,161.30265c-0.06223,3.65433 -3.07379,6.56266 -6.72812,6.50043c-3.65079,-0.06294 -6.56195,-3.07733 -6.49831,-6.72883l0.37123,-21.38503l-21.38786,0.05869c-3.65292,0.0099 -6.62134,-2.94298 -6.63266,-6.59731c-0.00849,-3.65291 2.94368,-6.62064 6.59801,-6.63195l21.65303,-0.05939l0.37689,-21.64949c0.06293,-3.65362 3.07521,-6.56266 6.72883,-6.49973c3.6522,0.06293 6.56124,3.07521 6.49831,6.72883l-0.37123,21.38362l21.38786,-0.05728c3.65433,-0.0099 6.62417,2.94297 6.63407,6.59589c0.0099,3.65433 -2.94368,6.62347 -6.59801,6.63337l-21.65373,0.05869z"/></g></g></svg>